<?xml version="1.0" encoding="utf-8"?>
<!-- Generator: Adobe Illustrator 22.0.1, SVG Export Plug-In . SVG Version: 6.00 Build 0)  -->
<svg version="1.1" id="Layer_1" xmlns="http://www.w3.org/2000/svg" xmlns:xlink="http://www.w3.org/1999/xlink" x="0px" y="0px"
	 viewBox="0 0 150 65" style="enable-background:new 0 0 150 65;" xml:space="preserve">
<style type="text/css">
	.st0{fill:#0078BE;}
</style>
<g>
	<path class="st0" d="M67,7.9h-2.3H20.2c-0.8,0-1.4,0.3-2.1,0.8c-0.6,0.6-1.2,1.3-1.6,2.2c-0.5,0.9-0.8,1.9-1.1,2.9
		c-0.3,1.1-0.5,2.1-0.7,3.1l-1.5,10c0,1.1,0.3,2.1,1,2.9c0.7,0.8,1.4,1.4,2.2,1.7h22.4c0.8,0.3,1.1,1,0.8,2.3
		c-0.1,0.6-0.3,1-0.5,1.4c-0.2,0.4-0.5,0.6-1,0.8H12.3l-1.5,10h31.9c0.9,0,1.6-0.3,2.2-0.9c0.6-0.6,1-1.3,1.4-2.2
		c0.4-0.9,0.7-1.8,0.9-2.9c0.2-1.1,0.4-2.1,0.6-3l0.7-5.1c0.2-1,0.2-2.1,0.3-3.2c0-1.1,0-2.2-0.2-3.1c-0.2-1-0.5-1.7-0.8-2.3
		c-0.4-0.6-0.9-0.9-1.5-0.9H23.7c-0.8-0.2-1.1-1-0.9-2.3c0.2-0.7,0.3-1.1,0.5-1.4c0.2-0.3,0.5-0.5,1-0.8h34.1l-3.2,21.9
		c-0.1,0.7,0,1.5,0.4,2.5c0.4,1,0.8,1.7,1.2,2.1c0.2,0.3,0.5,0.6,1,1c0.5,0.4,0.9,0.5,1.2,0.5h5c-0.3,0-0.6-0.2-1.2-0.5
		c-0.5-0.4-0.9-0.7-1-1c-0.4-0.4-0.8-1.1-1.2-2.1c-0.4-1-0.5-1.8-0.4-2.5L64,14c0.1-0.6,0.3-1.3,0.8-2c0.4-0.7,0.9-1.4,1.5-2
		c0.6-0.6,1.2-1.1,1.8-1.5c0.6-0.4,1.2-0.6,1.6-0.6H67z"/>
	<path class="st0" d="M89.2,18.6l-14.7,0c-1.5,0-2.9,1.2-3.2,2.7l-2,11.3C69,34,70,35.2,71.5,35.2l6.8,0l-3-8.7h9.1l3.1,8.3
		c0.9-0.5,1.6-1.3,1.8-2.3l2-11.3C91.7,19.8,90.7,18.6,89.2,18.6"/>
	<path class="st0" d="M102.2,7.9H102h-5c0.5,0,0.9,0.2,1.4,0.6c0.5,0.4,0.9,0.9,1.3,1.5c0.4,0.6,0.7,1.3,0.9,2
		c0.2,0.7,0.2,1.4,0.2,2L97,39.8c-0.1,0.6-0.3,1.3-0.7,2c-0.4,0.7-0.9,1.4-1.5,2c-0.6,0.6-1.1,1.1-1.8,1.6c-0.5,0.3-0.9,0.5-1.3,0.6
		l0,0h-9.1l3,8.7h9.4l-3.2-8.6h4.8c0.5,0,1-0.2,1.6-0.6c0.6-0.4,1.2-0.9,1.8-1.6c0.6-0.6,1-1.3,1.5-2c0.4-0.7,0.7-1.4,0.7-2l3.2-22
		h8.7l-4.2,28h8.4l4.2-28h13.6l1.4-9.9H102.2z"/>
</g>
</svg>
